<svg xmlns="http://www.w3.org/2000/svg" fill="none" viewBox="0 0 24 24">
  <path d="M19.624 5.41A17.962 17.962 0 0 0 15.146 4a.068.068 0 0 0-.072.035c-.194.348-.408.803-.558 1.16a16.523 16.523 0 0 0-5.03 0c-.15-.365-.371-.812-.565-1.16A.07.07 0 0 0 8.849 4 17.913 17.913 0 0 0 4.37 5.41a.064.064 0 0 0-.03.026C1.49 9.755.708 13.968 1.091 18.13c.002.02.013.04.029.052a18.147 18.147 0 0 0 5.493 2.815.07.07 0 0 0 .077-.026c.423-.586.8-1.203 1.124-1.853a.07.07 0 0 0-.038-.098c-.598-.23-1.168-.51-1.716-.83a.072.072 0 0 1-.007-.118c.115-.088.23-.179.34-.27a.067.067 0 0 1 .072-.01c3.6 1.666 7.498 1.666 11.056 0a.067.067 0 0 1 .072.008c.11.092.226.184.342.272.04.03.037.093-.006.119-.548.324-1.118.599-1.717.828a.072.072 0 0 0-.038.099c.33.649.708 1.267 1.123 1.852a.07.07 0 0 0 .078.027 18.086 18.086 0 0 0 5.502-2.815.072.072 0 0 0 .028-.052c.459-4.81-.768-8.99-3.253-12.694a.056.056 0 0 0-.028-.027ZM8.352 15.595c-1.084 0-1.977-1.01-1.977-2.248 0-1.24.875-2.248 1.977-2.248 1.11 0 1.994 1.018 1.977 2.248 0 1.239-.876 2.248-1.977 2.248Zm7.31 0c-1.084 0-1.977-1.01-1.977-2.248 0-1.24.876-2.248 1.977-2.248 1.11 0 1.994 1.018 1.977 2.248 0 1.239-.867 2.248-1.977 2.248Z"/>
</svg>
